name Walk5.mot
datacolumns 19
datarows 30
range 1.40400000 1.43300000
endheader

                time	   L_ground_force_vx	   L_ground_force_vy	   L_ground_force_vz	   L_ground_force_px	   L_ground_force_py	   L_ground_force_pz	   R_ground_force_vx	   R_ground_force_vy	   R_ground_force_vz	   R_ground_force_px	   R_ground_force_py	   R_ground_force_pz	   L_ground_torque_x	   L_ground_torque_y	   L_ground_torque_z	   R_ground_torque_x	   R_ground_torque_y	   R_ground_torque_z	
          1.40400000	         41.17710589	        939.62624833	         81.84579677	         -0.17608567	          0.00000000	         -0.05648934	         -0.01009802	          0.23752588	          0.02238149	          0.00024665	          0.00000000	          0.00006579	          0.00000000	         -1.72307053	          0.00000000	          0.00000000	          0.00023808	          0.00000000	
          1.40500000	         41.89203667	        941.19159223	         82.02455111	         -0.17589176	          0.00000000	         -0.05653077	         -0.01152372	          0.25691972	          0.02403949	          0.00026158	          0.00000000	          0.00006970	          0.00000000	         -1.73854535	          0.00000000	          0.00000000	          0.00040156	          0.00000000	
          1.40600000	         42.60934549	        942.76698591	         82.20157847	         -0.17569781	          0.00000000	         -0.05657153	         -0.01303430	          0.27705468	          0.02575227	          0.00027682	          0.00000000	          0.00007369	          0.00000000	         -1.75420548	          0.00000000	          0.00000000	          0.00057857	          0.00000000	
          1.40700000	         43.32907038	        944.35230281	         82.37678223	         -0.17550381	          0.00000000	         -0.05661162	         -0.01463142	          0.29791647	          0.02751787	          0.00029234	          0.00000000	          0.00007774	          0.00000000	         -1.77004620	          0.00000000	          0.00000000	          0.00076965	          0.00000000	
          1.40800000	         44.05125292	        945.94739788	         82.55007101	         -0.17530977	          0.00000000	         -0.05665107	         -0.01631652	          0.31948647	          0.02933388	          0.00030808	          0.00000000	          0.00008185	          0.00000000	         -1.78606221	          0.00000000	          0.00000000	          0.00097530	          0.00000000	
          1.40900000	         44.77593994	        947.55210431	         82.72135787	         -0.17511567	          0.00000000	         -0.05668987	         -0.01809083	          0.34174142	          0.03119750	          0.00032402	          0.00000000	          0.00008601	          0.00000000	         -1.80224769	          0.00000000	          0.00000000	          0.00119603	          0.00000000	
          1.41000000	         45.50318461	        949.16623156	         82.89055929	         -0.17492152	          0.00000000	         -0.05672806	         -0.01995531	          0.36465304	          0.03310545	          0.00034011	          0.00000000	          0.00009019	          0.00000000	         -1.81859622	          0.00000000	          0.00000000	          0.00143233	          0.00000000	
          1.41100000	         46.23304680	        950.78956425	         83.05759395	         -0.17472731	          0.00000000	         -0.05676562	         -0.02191062	          0.38818775	          0.03505398	          0.00035628	          0.00000000	          0.00009439	          0.00000000	         -1.83510056	          0.00000000	          0.00000000	          0.00168468	          0.00000000	
          1.41200000	         46.96559249	        952.42186158	         83.22238177	         -0.17453303	          0.00000000	         -0.05680257	         -0.02395715	          0.41230624	          0.03703880	          0.00037248	          0.00000000	          0.00009859	          0.00000000	         -1.85175245	          0.00000000	          0.00000000	          0.00195351	          0.00000000	
          1.41300000	         47.70089275	        954.06285766	         83.38484329	         -0.17433866	          0.00000000	         -0.05683890	         -0.02609491	          0.43696316	          0.03905510	          0.00038865	          0.00000000	          0.00010278	          0.00000000	         -1.86854242	          0.00000000	          0.00000000	          0.00223926	          0.00000000	
          1.41400000	         48.43902248	        955.71226275	         83.54489950	         -0.17414420	          0.00000000	         -0.05687462	         -0.02832355	          0.46210670	          0.04109746	          0.00040472	          0.00000000	          0.00010693	          0.00000000	         -1.88545986	          0.00000000	          0.00000000	          0.00254232	          0.00000000	
          1.41500000	         49.18005938	        957.36976526	         83.70247256	         -0.17394962	          0.00000000	         -0.05690970	         -0.03064231	          0.48767824	          0.04315989	          0.00042061	          0.00000000	          0.00011102	          0.00000000	         -1.90249306	          0.00000000	          0.00000000	          0.00286304	          0.00000000	
          1.41600000	         49.92408353	        959.03503331	         83.85748717	         -0.17375492	          0.00000000	         -0.05694416	         -0.03304999	          0.51361196	          0.04523572	          0.00043624	          0.00000000	          0.00011504	          0.00000000	         -1.91962943	          0.00000000	          0.00000000	          0.00320174	          0.00000000	
          1.41700000	         50.67117769	        960.70771531	         84.00987212	         -0.17356009	          0.00000000	         -0.05697796	         -0.03554492	          0.53983440	          0.04731763	          0.00045152	          0.00000000	          0.00011895	          0.00000000	         -1.93685583	          0.00000000	          0.00000000	          0.00355869	          0.00000000	
          1.41800000	         51.42142810	        962.38743918	         84.15956139	         -0.17336510	          0.00000000	         -0.05701111	         -0.03812489	          0.56626409	          0.04939758	          0.00046635	          0.00000000	          0.00012274	          0.00000000	         -1.95415870	          0.00000000	          0.00000000	          0.00393411	          0.00000000	
          1.41900000	         52.17492509	        964.07381112	         84.30649422	         -0.17316995	          0.00000000	         -0.05704357	         -0.04078715	          0.59281114	          0.05146680	          0.00048064	          0.00000000	          0.00012637	          0.00000000	         -1.97152426	          0.00000000	          0.00000000	          0.00432817	          0.00000000	
          1.42000000	         52.93176323	        965.76641454	         84.45061432	         -0.17297462	          0.00000000	         -0.05707534	         -0.04352835	          0.61937682	          0.05351575	          0.00049427	          0.00000000	          0.00012982	          0.00000000	         -1.98893847	          0.00000000	          0.00000000	          0.00474097	          0.00000000	
          1.42100000	         53.69204075	        967.46480955	         84.59186872	         -0.17277910	          0.00000000	         -0.05710641	         -0.04634451	          0.64585315	          0.05553409	          0.00050713	          0.00000000	          0.00013305	          0.00000000	         -2.00638689	          0.00000000	          0.00000000	          0.00517255	          0.00000000	
          1.42200000	         54.45585852	        969.16853279	         84.73020651	         -0.17258338	          0.00000000	         -0.05713675	         -0.04923096	          0.67212248	          0.05751063	          0.00051908	          0.00000000	          0.00013603	          0.00000000	         -2.02385452	          0.00000000	          0.00000000	          0.00562288	          0.00000000	
          1.42300000	         55.22331886	        970.87709723	         84.86557800	         -0.17238745	          0.00000000	         -0.05716636	         -0.05218232	          0.69805708	          0.05943333	          0.00053001	          0.00000000	          0.00013872	          0.00000000	         -2.04132568	          0.00000000	          0.00000000	          0.00609183	          0.00000000	
          1.42400000	         55.99452444	        972.58999216	         84.99793403	         -0.17219130	          0.00000000	         -0.05719523	         -0.05519243	          0.72351874	          0.06128923	          0.00053975	          0.00000000	          0.00014110	          0.00000000	         -2.05878389	          0.00000000	          0.00000000	          0.00657920	          0.00000000	
          1.42500000	         56.76957759	        974.30668340	         85.12722588	         -0.17199490	          0.00000000	         -0.05722336	         -0.05825431	          0.74835836	          0.06306448	          0.00054818	          0.00000000	          0.00014311	          0.00000000	         -2.07621184	          0.00000000	          0.00000000	          0.00708468	          0.00000000	
          1.42600000	         57.54858008	        976.02661453	         85.25340551	         -0.17179826	          0.00000000	         -0.05725073	         -0.06136013	          0.77241555	          0.06474425	          0.00055513	          0.00000000	          0.00014472	          0.00000000	         -2.09359147	          0.00000000	          0.00000000	          0.00760788	          0.00000000	
          1.42700000	         58.33163357	        977.74920909	         85.37642611	         -0.17160136	          0.00000000	         -0.05727737	         -0.06450115	          0.79551825	          0.06631272	          0.00056042	          0.00000000	          0.00014588	          0.00000000	         -2.11090408	          0.00000000	          0.00000000	          0.00814828	          0.00000000	
          1.42800000	         59.11884056	        979.47387398	         85.49624255	         -0.17140418	          0.00000000	         -0.05730325	         -0.06766766	          0.81748235	          0.06775307	          0.00056390	          0.00000000	          0.00014654	          0.00000000	         -2.12813068	          0.00000000	          0.00000000	          0.00870524	          0.00000000	
          1.42900000	         59.91030536	        981.20000364	         85.61281157	         -0.17120673	          0.00000000	         -0.05732838	         -0.07084896	          0.83811134	          0.06904745	          0.00056537	          0.00000000	          0.00014667	          0.00000000	         -2.14525230	          0.00000000	          0.00000000	          0.00927800	          0.00000000	
          1.43000000	         60.70613479	        982.92698461	         85.72609134	         -0.17100899	          0.00000000	         -0.05735277	         -0.07403328	          0.85719595	          0.07017696	          0.00056464	          0.00000000	          0.00014619	          0.00000000	         -2.16225021	          0.00000000	          0.00000000	          0.00986568	          0.00000000	
          1.43100000	         61.50643809	        984.65420013	         85.83604092	         -0.17081095	          0.00000000	         -0.05737642	         -0.07720775	          0.87451386	          0.07112160	          0.00056151	          0.00000000	          0.00014507	          0.00000000	         -2.17910599	          0.00000000	          0.00000000	          0.01046721	          0.00000000	
          1.43200000	         62.31132648	        986.38103442	         85.94261964	         -0.17061262	          0.00000000	         -0.05739931	         -0.08035836	          0.88982938	          0.07186029	          0.00055578	          0.00000000	          0.00014325	          0.00000000	         -2.19580155	          0.00000000	          0.00000000	          0.01108142	          0.00000000	
          1.43300000	         63.12091206	        988.10687636	         86.04578662	         -0.17041399	          0.00000000	         -0.05742147	         -0.08346985	          0.90289317	          0.07237085	          0.00054721	          0.00000000	          0.00014066	          0.00000000	         -2.21231910	          0.00000000	          0.00000000	          0.01170694	          0.00000000	
